<mxfile host="app.diagrams.net" agent="Mozilla/5.0 (Windows NT 10.0; Win64; x64) AppleWebKit/537.36 (KHTML, like Gecko) Chrome/134.0.0.0 Safari/537.36 Edg/134.0.0.0" version="26.1.3">
  <diagram name="Page-1" id="CwEGhBO9QbRgsI6a4UCq">
    <mxGraphModel dx="1203" dy="524" grid="1" gridSize="10" guides="1" tooltips="1" connect="1" arrows="1" fold="1" page="1" pageScale="1" pageWidth="850" pageHeight="1100" math="0" shadow="0">
      <root>
        <mxCell id="0" />
        <mxCell id="1" parent="0" />
        <mxCell id="ZJyna0UpAOtfHH2cN7TO-2" value="" style="sketch=0;points=[[0,0,0],[0.25,0,0],[0.5,0,0],[0.75,0,0],[1,0,0],[0,1,0],[0.25,1,0],[0.5,1,0],[0.75,1,0],[1,1,0],[0,0.25,0],[0,0.5,0],[0,0.75,0],[1,0.25,0],[1,0.5,0],[1,0.75,0]];outlineConnect=0;fontColor=#232F3E;fillColor=#8C4FFF;strokeColor=#ffffff;dashed=0;verticalLabelPosition=bottom;verticalAlign=top;align=center;html=1;fontSize=12;fontStyle=0;aspect=fixed;shape=mxgraph.aws4.resourceIcon;resIcon=mxgraph.aws4.api_gateway;" vertex="1" parent="1">
          <mxGeometry x="360" y="560" width="78" height="78" as="geometry" />
        </mxCell>
        <mxCell id="ZJyna0UpAOtfHH2cN7TO-3" value="Amazon API Gateway" style="text;strokeColor=none;fillColor=none;html=1;fontSize=24;fontStyle=1;verticalAlign=middle;align=center;" vertex="1" parent="1">
          <mxGeometry x="351" y="640" width="100" height="40" as="geometry" />
        </mxCell>
        <mxCell id="ZJyna0UpAOtfHH2cN7TO-4" value="" style="sketch=0;points=[[0,0,0],[0.25,0,0],[0.5,0,0],[0.75,0,0],[1,0,0],[0,1,0],[0.25,1,0],[0.5,1,0],[0.75,1,0],[1,1,0],[0,0.25,0],[0,0.5,0],[0,0.75,0],[1,0.25,0],[1,0.5,0],[1,0.75,0]];outlineConnect=0;fontColor=#232F3E;fillColor=#ED7100;strokeColor=#ffffff;dashed=0;verticalLabelPosition=bottom;verticalAlign=top;align=center;html=1;fontSize=12;fontStyle=0;aspect=fixed;shape=mxgraph.aws4.resourceIcon;resIcon=mxgraph.aws4.lambda;" vertex="1" parent="1">
          <mxGeometry x="640" y="402" width="78" height="78" as="geometry" />
        </mxCell>
        <mxCell id="ZJyna0UpAOtfHH2cN7TO-5" value="" style="sketch=0;points=[[0,0,0],[0.25,0,0],[0.5,0,0],[0.75,0,0],[1,0,0],[0,1,0],[0.25,1,0],[0.5,1,0],[0.75,1,0],[1,1,0],[0,0.25,0],[0,0.5,0],[0,0.75,0],[1,0.25,0],[1,0.5,0],[1,0.75,0]];outlineConnect=0;fontColor=#232F3E;fillColor=#ED7100;strokeColor=#ffffff;dashed=0;verticalLabelPosition=bottom;verticalAlign=top;align=center;html=1;fontSize=12;fontStyle=0;aspect=fixed;shape=mxgraph.aws4.resourceIcon;resIcon=mxgraph.aws4.lambda;" vertex="1" parent="1">
          <mxGeometry x="360" y="360" width="78" height="78" as="geometry" />
        </mxCell>
        <mxCell id="ZJyna0UpAOtfHH2cN7TO-6" value="" style="sketch=0;points=[[0,0,0],[0.25,0,0],[0.5,0,0],[0.75,0,0],[1,0,0],[0,1,0],[0.25,1,0],[0.5,1,0],[0.75,1,0],[1,1,0],[0,0.25,0],[0,0.5,0],[0,0.75,0],[1,0.25,0],[1,0.5,0],[1,0.75,0]];outlineConnect=0;fontColor=#232F3E;fillColor=#ED7100;strokeColor=#ffffff;dashed=0;verticalLabelPosition=bottom;verticalAlign=top;align=center;html=1;fontSize=12;fontStyle=0;aspect=fixed;shape=mxgraph.aws4.resourceIcon;resIcon=mxgraph.aws4.lambda;" vertex="1" parent="1">
          <mxGeometry x="80" y="560" width="78" height="78" as="geometry" />
        </mxCell>
        <mxCell id="ZJyna0UpAOtfHH2cN7TO-9" value="retrieveUserInput" style="text;strokeColor=none;fillColor=none;html=1;fontSize=24;fontStyle=1;verticalAlign=middle;align=center;" vertex="1" parent="1">
          <mxGeometry x="618" y="480" width="100" height="40" as="geometry" />
        </mxCell>
        <mxCell id="ZJyna0UpAOtfHH2cN7TO-10" value="updateTickets" style="text;strokeColor=none;fillColor=none;html=1;fontSize=24;fontStyle=1;verticalAlign=middle;align=center;" vertex="1" parent="1">
          <mxGeometry x="80" y="638" width="100" height="40" as="geometry" />
        </mxCell>
        <mxCell id="ZJyna0UpAOtfHH2cN7TO-11" value="" style="sketch=0;points=[[0,0,0],[0.25,0,0],[0.5,0,0],[0.75,0,0],[1,0,0],[0,1,0],[0.25,1,0],[0.5,1,0],[0.75,1,0],[1,1,0],[0,0.25,0],[0,0.5,0],[0,0.75,0],[1,0.25,0],[1,0.5,0],[1,0.75,0]];outlineConnect=0;fontColor=#232F3E;fillColor=#01A88D;strokeColor=#ffffff;dashed=0;verticalLabelPosition=bottom;verticalAlign=top;align=center;html=1;fontSize=12;fontStyle=0;aspect=fixed;shape=mxgraph.aws4.resourceIcon;resIcon=mxgraph.aws4.bedrock;" vertex="1" parent="1">
          <mxGeometry x="640" y="160" width="78" height="78" as="geometry" />
        </mxCell>
        <mxCell id="ZJyna0UpAOtfHH2cN7TO-12" value="Amazon Bedrock" style="text;strokeColor=none;fillColor=none;html=1;fontSize=24;fontStyle=1;verticalAlign=middle;align=center;" vertex="1" parent="1">
          <mxGeometry x="627.5" y="278" width="100" height="40" as="geometry" />
        </mxCell>
        <mxCell id="ZJyna0UpAOtfHH2cN7TO-13" value="" style="shape=image;verticalLabelPosition=bottom;labelBackgroundColor=default;verticalAlign=top;aspect=fixed;imageAspect=0;image=https://scienzai.com/wp-content/uploads/2023/12/Pinecone-Logo.png;" vertex="1" parent="1">
          <mxGeometry x="639" width="80" height="80" as="geometry" />
        </mxCell>
        <mxCell id="ZJyna0UpAOtfHH2cN7TO-15" value="" style="sketch=0;outlineConnect=0;fontColor=#232F3E;gradientColor=none;fillColor=#7AA116;strokeColor=none;dashed=0;verticalLabelPosition=bottom;verticalAlign=top;align=center;html=1;fontSize=12;fontStyle=0;aspect=fixed;pointerEvents=1;shape=mxgraph.aws4.bucket;" vertex="1" parent="1">
          <mxGeometry x="640" y="960" width="75" height="78" as="geometry" />
        </mxCell>
        <mxCell id="ZJyna0UpAOtfHH2cN7TO-16" value="" style="sketch=0;pointerEvents=1;shadow=0;dashed=0;html=1;strokeColor=none;fillColor=#434445;aspect=fixed;labelPosition=center;verticalLabelPosition=bottom;verticalAlign=top;align=center;outlineConnect=0;shape=mxgraph.vvd.web_browser;" vertex="1" parent="1">
          <mxGeometry x="354.22999999999996" y="766.5" width="91.55" height="65" as="geometry" />
        </mxCell>
        <mxCell id="ZJyna0UpAOtfHH2cN7TO-17" value="" style="sketch=0;points=[[0,0,0],[0.25,0,0],[0.5,0,0],[0.75,0,0],[1,0,0],[0,1,0],[0.25,1,0],[0.5,1,0],[0.75,1,0],[1,1,0],[0,0.25,0],[0,0.5,0],[0,0.75,0],[1,0.25,0],[1,0.5,0],[1,0.75,0]];outlineConnect=0;fontColor=#232F3E;fillColor=#8C4FFF;strokeColor=#ffffff;dashed=0;verticalLabelPosition=bottom;verticalAlign=top;align=center;html=1;fontSize=12;fontStyle=0;aspect=fixed;shape=mxgraph.aws4.resourceIcon;resIcon=mxgraph.aws4.cloudfront;" vertex="1" parent="1">
          <mxGeometry x="640" y="760" width="78" height="78" as="geometry" />
        </mxCell>
        <mxCell id="ZJyna0UpAOtfHH2cN7TO-18" value="S3 Bucket" style="text;strokeColor=none;fillColor=none;html=1;fontSize=24;fontStyle=1;verticalAlign=middle;align=center;" vertex="1" parent="1">
          <mxGeometry x="629" y="1038" width="100" height="40" as="geometry" />
        </mxCell>
        <mxCell id="ZJyna0UpAOtfHH2cN7TO-19" value="CloudFront" style="text;strokeColor=none;fillColor=none;html=1;fontSize=24;fontStyle=1;verticalAlign=middle;align=center;" vertex="1" parent="1">
          <mxGeometry x="627.5" y="838" width="100" height="40" as="geometry" />
        </mxCell>
        <mxCell id="ZJyna0UpAOtfHH2cN7TO-20" value="Browser" style="text;strokeColor=none;fillColor=none;html=1;fontSize=24;fontStyle=1;verticalAlign=middle;align=center;" vertex="1" parent="1">
          <mxGeometry x="353.23" y="838" width="100" height="40" as="geometry" />
        </mxCell>
        <mxCell id="ZJyna0UpAOtfHH2cN7TO-27" value="" style="endArrow=classic;html=1;rounded=0;entryX=0.5;entryY=0;entryDx=0;entryDy=0;" edge="1" parent="1" source="ZJyna0UpAOtfHH2cN7TO-16" target="ZJyna0UpAOtfHH2cN7TO-3">
          <mxGeometry width="50" height="50" relative="1" as="geometry">
            <mxPoint x="320" y="640" as="sourcePoint" />
            <mxPoint x="310" y="700" as="targetPoint" />
          </mxGeometry>
        </mxCell>
        <mxCell id="ZJyna0UpAOtfHH2cN7TO-49" value="API calls" style="edgeLabel;html=1;align=center;verticalAlign=middle;resizable=0;points=[];" vertex="1" connectable="0" parent="ZJyna0UpAOtfHH2cN7TO-27">
          <mxGeometry x="-0.2908" relative="1" as="geometry">
            <mxPoint as="offset" />
          </mxGeometry>
        </mxCell>
        <mxCell id="ZJyna0UpAOtfHH2cN7TO-28" value="" style="endArrow=classic;html=1;rounded=0;entryX=0;entryY=0.5;entryDx=0;entryDy=0;entryPerimeter=0;" edge="1" parent="1" target="ZJyna0UpAOtfHH2cN7TO-17">
          <mxGeometry width="50" height="50" relative="1" as="geometry">
            <mxPoint x="450" y="800" as="sourcePoint" />
            <mxPoint x="500" y="750" as="targetPoint" />
          </mxGeometry>
        </mxCell>
        <mxCell id="ZJyna0UpAOtfHH2cN7TO-58" value="Get single page application" style="edgeLabel;html=1;align=center;verticalAlign=middle;resizable=0;points=[];" vertex="1" connectable="0" parent="ZJyna0UpAOtfHH2cN7TO-28">
          <mxGeometry x="-0.3184" y="-1" relative="1" as="geometry">
            <mxPoint x="25" y="-2" as="offset" />
          </mxGeometry>
        </mxCell>
        <mxCell id="ZJyna0UpAOtfHH2cN7TO-29" value="" style="endArrow=classic;html=1;rounded=0;exitX=0.5;exitY=1;exitDx=0;exitDy=0;exitPerimeter=0;" edge="1" parent="1" source="ZJyna0UpAOtfHH2cN7TO-17" target="ZJyna0UpAOtfHH2cN7TO-15">
          <mxGeometry width="50" height="50" relative="1" as="geometry">
            <mxPoint x="680" y="840" as="sourcePoint" />
            <mxPoint x="730" y="790" as="targetPoint" />
          </mxGeometry>
        </mxCell>
        <mxCell id="ZJyna0UpAOtfHH2cN7TO-62" value="Fetch frontend assets" style="edgeLabel;html=1;align=center;verticalAlign=middle;resizable=0;points=[];" vertex="1" connectable="0" parent="ZJyna0UpAOtfHH2cN7TO-29">
          <mxGeometry x="0.0623" y="-1" relative="1" as="geometry">
            <mxPoint as="offset" />
          </mxGeometry>
        </mxCell>
        <mxCell id="ZJyna0UpAOtfHH2cN7TO-31" value="" style="endArrow=classic;html=1;rounded=0;entryX=1;entryY=0.5;entryDx=0;entryDy=0;entryPerimeter=0;" edge="1" parent="1" target="ZJyna0UpAOtfHH2cN7TO-6">
          <mxGeometry width="50" height="50" relative="1" as="geometry">
            <mxPoint x="360" y="600" as="sourcePoint" />
            <mxPoint x="410" y="550" as="targetPoint" />
          </mxGeometry>
        </mxCell>
        <mxCell id="ZJyna0UpAOtfHH2cN7TO-32" value="" style="endArrow=classic;html=1;rounded=0;entryX=0.5;entryY=1;entryDx=0;entryDy=0;entryPerimeter=0;exitX=1;exitY=0.5;exitDx=0;exitDy=0;exitPerimeter=0;" edge="1" parent="1" source="ZJyna0UpAOtfHH2cN7TO-2" target="ZJyna0UpAOtfHH2cN7TO-4">
          <mxGeometry width="50" height="50" relative="1" as="geometry">
            <mxPoint x="400" y="560" as="sourcePoint" />
            <mxPoint x="450" y="510" as="targetPoint" />
          </mxGeometry>
        </mxCell>
        <mxCell id="ZJyna0UpAOtfHH2cN7TO-50" value="Process user query, embed and&amp;nbsp;&lt;div&gt;retrieve relevant Jira ticket if it exists.&lt;/div&gt;" style="edgeLabel;html=1;align=center;verticalAlign=middle;resizable=0;points=[];" vertex="1" connectable="0" parent="ZJyna0UpAOtfHH2cN7TO-32">
          <mxGeometry x="-0.2103" y="1" relative="1" as="geometry">
            <mxPoint x="57" y="-1" as="offset" />
          </mxGeometry>
        </mxCell>
        <mxCell id="ZJyna0UpAOtfHH2cN7TO-35" value="" style="endArrow=classic;startArrow=classic;html=1;rounded=0;entryX=0.5;entryY=0;entryDx=0;entryDy=0;entryPerimeter=0;exitX=0.5;exitY=1;exitDx=0;exitDy=0;" edge="1" parent="1" source="ZJyna0UpAOtfHH2cN7TO-13" target="ZJyna0UpAOtfHH2cN7TO-11">
          <mxGeometry width="50" height="50" relative="1" as="geometry">
            <mxPoint x="399" y="80" as="sourcePoint" />
            <mxPoint x="370" y="210" as="targetPoint" />
          </mxGeometry>
        </mxCell>
        <mxCell id="ZJyna0UpAOtfHH2cN7TO-61" value="&lt;span style=&quot;font-size: 12px; background-color: rgb(251, 251, 251);&quot;&gt;Similarity search for related Jira tickets&lt;/span&gt;" style="edgeLabel;html=1;align=center;verticalAlign=middle;resizable=0;points=[];" vertex="1" connectable="0" parent="ZJyna0UpAOtfHH2cN7TO-35">
          <mxGeometry x="0.1824" y="1" relative="1" as="geometry">
            <mxPoint as="offset" />
          </mxGeometry>
        </mxCell>
        <mxCell id="ZJyna0UpAOtfHH2cN7TO-37" value="" style="endArrow=classic;startArrow=classic;html=1;rounded=0;entryX=0.5;entryY=1;entryDx=0;entryDy=0;exitX=0.5;exitY=0;exitDx=0;exitDy=0;exitPerimeter=0;entryPerimeter=0;" edge="1" parent="1" source="ZJyna0UpAOtfHH2cN7TO-4" target="ZJyna0UpAOtfHH2cN7TO-11">
          <mxGeometry width="50" height="50" relative="1" as="geometry">
            <mxPoint x="320" y="450" as="sourcePoint" />
            <mxPoint x="370" y="400" as="targetPoint" />
          </mxGeometry>
        </mxCell>
        <mxCell id="ZJyna0UpAOtfHH2cN7TO-59" value="Embed user input and find related tickets." style="edgeLabel;html=1;align=center;verticalAlign=middle;resizable=0;points=[];" vertex="1" connectable="0" parent="ZJyna0UpAOtfHH2cN7TO-37">
          <mxGeometry x="-0.2733" y="-2" relative="1" as="geometry">
            <mxPoint as="offset" />
          </mxGeometry>
        </mxCell>
        <mxCell id="ZJyna0UpAOtfHH2cN7TO-38" value="" style="image;html=1;image=img/lib/atlassian/Jira_Logo.svg;" vertex="1" parent="1">
          <mxGeometry x="86" y="366" width="72" height="72" as="geometry" />
        </mxCell>
        <mxCell id="ZJyna0UpAOtfHH2cN7TO-41" value="" style="endArrow=classic;html=1;rounded=0;exitX=0.5;exitY=0;exitDx=0;exitDy=0;exitPerimeter=0;" edge="1" parent="1" source="ZJyna0UpAOtfHH2cN7TO-2" target="ZJyna0UpAOtfHH2cN7TO-5">
          <mxGeometry width="50" height="50" relative="1" as="geometry">
            <mxPoint x="399" y="560" as="sourcePoint" />
            <mxPoint x="401" y="438" as="targetPoint" />
          </mxGeometry>
        </mxCell>
        <mxCell id="ZJyna0UpAOtfHH2cN7TO-8" value="getTickets" style="text;strokeColor=none;fillColor=none;html=1;fontSize=24;fontStyle=1;verticalAlign=middle;align=center;" vertex="1" parent="1">
          <mxGeometry x="351" y="440" width="100" height="40" as="geometry" />
        </mxCell>
        <mxCell id="ZJyna0UpAOtfHH2cN7TO-14" value="Pinecone Vector DB" style="text;strokeColor=none;fillColor=none;html=1;fontSize=24;fontStyle=1;verticalAlign=middle;align=center;" vertex="1" parent="1">
          <mxGeometry x="629" y="80" width="100" height="40" as="geometry" />
        </mxCell>
        <mxCell id="ZJyna0UpAOtfHH2cN7TO-43" value="Atlassian Jira" style="text;strokeColor=none;fillColor=none;html=1;fontSize=24;fontStyle=1;verticalAlign=middle;align=center;" vertex="1" parent="1">
          <mxGeometry x="72" y="438" width="100" height="40" as="geometry" />
        </mxCell>
        <mxCell id="ZJyna0UpAOtfHH2cN7TO-45" value="" style="endArrow=classic;html=1;rounded=0;entryX=0;entryY=0.5;entryDx=0;entryDy=0;entryPerimeter=0;startArrow=classic;startFill=1;" edge="1" parent="1" target="ZJyna0UpAOtfHH2cN7TO-5">
          <mxGeometry width="50" height="50" relative="1" as="geometry">
            <mxPoint x="158" y="400" as="sourcePoint" />
            <mxPoint x="208" y="352" as="targetPoint" />
          </mxGeometry>
        </mxCell>
        <mxCell id="ZJyna0UpAOtfHH2cN7TO-47" value="Fetch data from all Jira tickets via Jira API" style="edgeLabel;html=1;align=center;verticalAlign=middle;resizable=0;points=[];fontSize=10;fontStyle=0" vertex="1" connectable="0" parent="ZJyna0UpAOtfHH2cN7TO-45">
          <mxGeometry x="-0.5539" relative="1" as="geometry">
            <mxPoint x="57" y="-10" as="offset" />
          </mxGeometry>
        </mxCell>
        <mxCell id="ZJyna0UpAOtfHH2cN7TO-46" value="" style="endArrow=classic;html=1;rounded=0;startArrow=classic;startFill=1;" edge="1" parent="1">
          <mxGeometry width="50" height="50" relative="1" as="geometry">
            <mxPoint x="120" y="440" as="sourcePoint" />
            <mxPoint x="120" y="560" as="targetPoint" />
          </mxGeometry>
        </mxCell>
        <mxCell id="ZJyna0UpAOtfHH2cN7TO-48" value="Fetch data from one ticket on Jira ticket event&lt;div&gt;(create, update, add comment) via Jira Webhook&lt;/div&gt;" style="edgeLabel;html=1;align=center;verticalAlign=middle;resizable=0;points=[];" vertex="1" connectable="0" parent="ZJyna0UpAOtfHH2cN7TO-46">
          <mxGeometry x="-0.0999" y="-1" relative="1" as="geometry">
            <mxPoint x="4" y="42" as="offset" />
          </mxGeometry>
        </mxCell>
      </root>
    </mxGraphModel>
  </diagram>
</mxfile>
